<?xml version="1.0" encoding="UTF-8"?>
<svg width="44px" height="63px" viewBox="0 0 44 63" version="1.1" xmlns="http://www.w3.org/2000/svg" xmlns:xlink="http://www.w3.org/1999/xlink">
    <!-- Generator: Sketch 58 (84663) - https://sketch.com -->
    <title>people-2</title>
    <desc>Created with Sketch.</desc>
    <defs>
        <polygon id="path-1" points="0 0 37.7142857 0 37.7142857 20.5714071 0 20.5714071"></polygon>
    </defs>
    <g id="Page-1" stroke="none" stroke-width="1" fill="none" fill-rule="evenodd">
        <g id="Informacje-boostera" transform="translate(-494.000000, -1020.000000)">
            <g id="ico-copy" transform="translate(476.000000, 1004.000000)">
                <g id="people-2" transform="translate(16.000000, 16.000000)">
                    <polygon id="Fill-1" fill="#FFBF9E" points="29.1428571 44.5714286 29.1428571 51.4285714 24 54.8571429 18.8571429 51.4285714 18.8571429 44.5714286"></polygon>
                    <polygon id="Fill-2" fill="#F6F6F6" points="29.1428571 51.4285714 24 54.8571429 28.5771429 60.96 34.2857143 51.4285714"></polygon>
                    <polygon id="Fill-3" fill="#F6F6F6" points="18.8571429 51.4285714 13.7142857 51.4285714 19.4228571 60.96 24 54.8571429"></polygon>
                    <polygon id="Fill-4" fill="#69D3FF" points="24 54.8571429 19.4228571 60.96 24 68.5714286 28.5771429 60.96"></polygon>
                    <polygon id="Fill-5" fill="#454668" points="28.5772286 60.9599786 24.0000857 68.5714071 37.7143714 59.9999786 34.2858 51.42855"></polygon>
                    <polygon id="Fill-6" fill="#454668" points="19.4228786 60.9599786 13.7143071 51.42855 10.2857357 59.9999786 24.0000214 68.5714071"></polygon>
                    <g id="Group-30">
                        <path d="M37.7142857,82.2857143 L48,82.2857143 L44.9142857,54.48 C44.5523571,52.6896429 42.9692143,51.4088571 41.1428571,51.4283469 L34.2857143,51.4283469 L37.7142857,60 L24,68.5714286 L24,82.2857143 L37.7142857,82.2857143 Z" id="Fill-7" fill="#8EAFE2"></path>
                        <path d="M10.2857143,82.2857143 L24,82.2857143 L24,68.5714286 L10.2857143,60 L13.7142857,51.4283469 L6.85714286,51.4283469 C5.03057143,51.4088571 3.44764286,52.6896429 3.08571429,54.48 L0,82.2857143 L10.2857143,82.2857143 Z" id="Fill-9" fill="#6A96D7"></path>
                        <g id="Group-13" transform="translate(5.142857, 0.000000)">
                            <mask id="mask-2" fill="white">
                                <use xlink:href="#path-1"></use>
                            </mask>
                            <g id="Clip-12"></g>
                            <path d="M0,3.42855 L0,17.1428357 C0.00557142857,19.0341214 1.53728571,20.5658357 3.42857143,20.5714071 L18.8571429,20.5714071 C25.7142857,20.5714071 29.1428571,13.7142643 29.1428571,13.7142643 L29.1428571,17.1428357 C29.1484286,19.0341214 30.6803571,20.5658357 32.5714286,20.5714071 L34.2857143,20.5714071 C36.1767857,20.5658357 37.7087143,19.0341214 37.7142857,17.1428357 L37.7142857,6.85712143 C37.7142857,4.96369286 36.1793571,3.42855 34.2857143,3.42855 L32.5714286,3.42855 C30.6803571,3.43412143 29.1484286,4.96583571 29.1428571,6.85712143 C29.1820714,5.00290714 27.7105714,3.46776429 25.8563571,3.42855 C25.809,3.42769286 25.7616429,3.42769286 25.7142857,3.42855 L8.57142857,3.42855 C5.39314286,3.36212143 2.34728571,2.14369286 0,-2.14285714e-05 L0,3.42855 Z" id="Fill-11" fill="#4E5660" mask="url(#mask-2)"></path>
                        </g>
                        <path d="M30.8571429,34.2857143 L17.1428571,34.2857143 C17.1428571,38.0727857 20.2129286,41.1428571 24,41.1428571 C27.7870714,41.1428571 30.8571429,38.0727857 30.8571429,34.2857143" id="Fill-14" fill="#FE7073"></path>
                        <path d="M39.4285714,22.2856929 L39.4285714,32.5714071 C42.2689286,32.5714071 44.5714286,30.2689071 44.5714286,27.42855 C44.5714286,24.5881929 42.2689286,22.2856929 39.4285714,22.2856929" id="Fill-16" fill="#FFBF9E"></path>
                        <path d="M8.57142857,22.2856929 C5.73107143,22.2856929 3.42857143,24.5881929 3.42857143,27.42855 C3.42857143,30.2689071 5.73107143,32.5714071 8.57142857,32.5714071 L8.57142857,22.2856929 Z" id="Fill-18" fill="#FFBF9E"></path>
                        <path d="M24,41.1428571 C27.7870714,41.1428571 30.8571429,38.0727857 30.8571429,34.2857143 L17.1428571,34.2857143 C17.1428571,38.0727857 20.2129286,41.1428571 24,41.1428571 L24,41.1428571 Z M39.4285714,32.5714286 C39.4285714,41.0925 32.5210714,48 24,48 C15.4789286,48 8.57142857,41.0925 8.57142857,32.5714286 L8.57142857,20.5714286 L24,20.5714286 C30.8571429,20.5714286 34.2857143,13.7142857 34.2857143,13.7142857 L34.2857143,17.1428571 C34.2912857,19.0341429 35.8232143,20.5658571 37.7142857,20.5714286 L39.4285714,20.5714286 L39.4285714,32.5714286 Z" id="Fill-20" fill="#FFD4BE"></path>
                        <path d="M8.57142857,22.2856929 L8.57142857,20.5714071 L24,20.5714071 C30.8571429,20.5714071 34.2857143,13.7142643 34.2857143,13.7142643 L34.2857143,17.1428357 C34.2912857,19.0341214 35.8232143,20.5658357 37.7142857,20.5714071 L39.4285714,20.5714071 L39.4285714,23.9999786 L8.57142857,23.9999786 L8.57142857,22.2856929 Z" id="Fill-22" fill="#FFBF9E"></path>
                        <path d="M34.2857143,13.7142643 C34.2857143,13.7142643 30.8571429,20.5714071 24,20.5714071 L8.57142857,20.5714071 C6.68014286,20.5658357 5.14842857,19.0341214 5.14285714,17.1428357 L24,17.1428357 C27.7360714,17.3206929 31.4037857,16.0981929 34.2857143,13.7142643" id="Fill-24" fill="#383C43"></path>
                        <path d="M39.4285714,17.1428357 L39.4285714,6.85712143 C39.4227857,5.29862143 38.3663571,3.93983571 36.8571429,3.55026429 C37.1365714,3.47312143 37.4243571,3.43219286 37.7142857,3.42855 L39.4285714,3.42855 C41.3222143,3.42855 42.8571429,4.96369286 42.8571429,6.85712143 L42.8571429,17.1428357 C42.8571429,19.0362643 41.3222143,20.5714071 39.4285714,20.5714071 L37.7142857,20.5714071 C37.4243571,20.5677643 37.1365714,20.5268357 36.8571429,20.4496929 C38.3663571,20.0601214 39.4227857,18.70155 39.4285714,17.1428357" id="Fill-26" fill="#383C43"></path>
                        <path d="M27.2057143,8.95373571 C23.1790714,11.4231643 18.5179286,12.6608786 13.7965714,12.5143071 C10.8171429,12.4075929 7.88314286,11.7501643 5.14285714,10.57545 L5.14285714,4.59259286 C7.78628571,6.62702143 10.8801429,7.99630714 14.1634286,8.58516429 C18.477,9.26852143 22.8606429,9.39237857 27.2057143,8.95373571" id="Fill-28" fill="#383C43"></path>
                    </g>
                </g>
            </g>
        </g>
    </g>
</svg>