<?xml version="1.0" encoding="UTF-8"?>
<svg width="12px" height="14px" viewBox="0 0 12 14" version="1.1" xmlns="http://www.w3.org/2000/svg" xmlns:xlink="http://www.w3.org/1999/xlink">
    <!-- Generator: Sketch 58 (84663) - https://sketch.com -->
    <title>Shape</title>
    <desc>Created with Sketch.</desc>
    <g id="Page-1" stroke="none" stroke-width="1" fill="none" fill-rule="evenodd">
        <g id="Informacje-boostera" transform="translate(-139.000000, -381.000000)" fill="#FFFFFF" fill-rule="nonzero">
            <g id="b1-copy-3" transform="translate(119.000000, 334.000000)">
                <g id="Group-8" transform="translate(19.000000, 46.000000)">
                    <path d="M11.5,2.75 L10.9166667,2.75 L10.9166667,1.58333333 L9.75,1.58333333 L9.75,2.75 L3.91666667,2.75 L3.91666667,1.58333333 L2.75,1.58333333 L2.75,2.75 L2.16666667,2.75 C1.525,2.75 1,3.275 1,3.91666667 L1,13.25 C1,13.8916667 1.525,14.4166667 2.16666667,14.4166667 L11.5,14.4166667 C12.1416667,14.4166667 12.6666667,13.8916667 12.6666667,13.25 L12.6666667,3.91666667 C12.6666667,3.275 12.1416667,2.75 11.5,2.75 Z M11.5,13.25 L2.16666667,13.25 L2.16666667,5.66666667 L11.5,5.66666667 L11.5,13.25 Z" id="Shape"></path>
                </g>
            </g>
        </g>
    </g>
</svg>