<?xml version="1.0" encoding="UTF-8"?>
<svg width="38px" height="42px" viewBox="0 0 38 42" version="1.1" xmlns="http://www.w3.org/2000/svg" xmlns:xlink="http://www.w3.org/1999/xlink">
    <!-- Generator: Sketch 56.2 (81672) - https://sketch.com -->
    <title>Własny</title>
    <desc>Created with Sketch.</desc>
    <g id="Page-1" stroke="none" stroke-width="1" fill="none" fill-rule="evenodd">
        <g id="Booster" transform="translate(-528.000000, -1108.000000)" fill-rule="nonzero">
            <g id="Własny" transform="translate(528.000000, 1108.000000)">
                <path d="M19.3844776,35.9704478 L21.2113433,34.1435821 C22.7845242,32.569926 22.7845242,30.0190293 21.2113433,28.4453731 L19.8546269,27.0868657 C19.1050043,27.5932698 18.382794,28.1391126 17.6910448,28.7220896 L19.3119403,30.3456716 C19.8357374,30.870121 19.8357374,31.7197298 19.3119403,32.2441791 L17.4546269,34.1014925 L14.7250746,31.4570149 L10.9253731,35.2558209 L17.0202985,41.161791 C18.070299,42.2105551 19.7716838,42.2095527 20.8204478,41.1595522 C21.8692118,40.1095518 21.8682094,38.408167 20.818209,37.359403 L19.3844776,35.9704478 Z" id="Path" fill="#757575"></path>
                <path d="M25.9459701,0.220298507 C25.2040951,0.220298507 24.6026866,0.821707052 24.6026866,1.56358209 L24.6026866,4.25014925 C24.6026866,4.99202429 25.2040951,5.59343284 25.9459701,5.59343284 C26.6878452,5.59343284 27.2892537,4.99202429 27.2892537,4.25014925 L27.2892537,1.56358209 C27.2892537,0.821707052 26.6878452,0.220298507 25.9459701,0.220298507 Z" id="Path" fill="#E0E0E0"></path>
                <path d="M36.6922388,10.9665672 L34.0056716,10.9665672 C33.5257626,10.9665672 33.0823084,11.2225955 32.8423539,11.6382089 C32.6023994,12.0538223 32.6023994,12.5658792 32.8423539,12.9814926 C33.0823084,13.3971059 33.5257626,13.6531343 34.0056716,13.6531343 L36.6922388,13.6531343 C37.4341138,13.6531343 38.0355224,13.0517258 38.0355224,12.3098507 C38.0355224,11.5679757 37.4341138,10.9665672 36.6922388,10.9665672 L36.6922388,10.9665672 Z" id="Path" fill="#E0E0E0"></path>
                <path d="M34.9549254,3.3 C34.4303733,2.77560635 33.5800744,2.77560635 33.0555224,3.3 L30.3689552,5.98656716 C29.8598881,6.51364328 29.8671685,7.35145716 30.3853183,7.86960704 C30.9034682,8.38775692 31.7412821,8.3950373 32.2683582,7.88597015 L34.9549254,5.19940299 C35.479319,4.67485095 35.479319,3.82455204 34.9549254,3.3 Z" id="Path" fill="#E0E0E0"></path>
                <path d="M16.119403,4.77850746 L15.9850746,5.45373134 C15.0367164,10.2 10.4328358,17.3247761 7.31910448,20.9758209 L16.9602985,30.2337313 C20.6122388,27.118209 27.4379104,22.6002985 32.1841791,21.6510448 L32.859403,21.5167164 L16.119403,4.77850746 Z" id="Path" fill="#E0E0E0"></path>
                <path d="M7.83044776,20.3686567 L1.18119403,27.0161194 C0.425165787,27.7719008 0.000412787333,28.7971085 0.000412787333,29.8661194 C0.000412787333,30.9351303 0.425165787,31.960338 1.18119403,32.7161194 L4.98,36.5149254 C5.73578141,37.2709536 6.76098913,37.6957066 7.83,37.6957066 C8.89901087,37.6957066 9.92421859,37.2709536 10.68,36.5149254 L17.3283582,29.8665672 L7.83044776,20.3686567 Z M8.78059701,30.8167164 C8.25609136,31.3414693 7.40549923,31.3416698 6.8807463,30.8171642 C6.35599337,30.2926585 6.35579288,29.4420664 6.88029851,28.9173134 L8.78059701,27.0179104 C9.30767313,26.5088433 10.145487,26.5161237 10.6636369,27.0342736 C11.1817868,27.5524234 11.1890671,28.3902373 10.68,28.9173134 L8.78059701,30.8167164 Z" id="Shape" fill="#1B95E3"></path>
                <path d="M36.7997015,18.759403 L18.9170149,0.874029851 C17.867509,-0.175723327 16.1657233,-0.175923796 15.1159701,0.87358209 C14.066217,1.92308798 14.0660165,3.62487369 15.1155224,4.67462687 L33.0008955,22.558209 C33.6754239,23.2565998 34.6742988,23.5366906 35.6136018,23.2908282 C36.5529047,23.0449658 37.2864583,22.3114122 37.5323207,21.3721092 C37.7781831,20.4328063 37.4980923,19.4339314 36.7997015,18.759403 Z" id="Path" fill="#1B95E3"></path>
            </g>
        </g>
    </g>
</svg>