<?xml version="1.0" encoding="UTF-8"?>
<svg width="17px" height="12px" viewBox="0 0 17 12" version="1.1" xmlns="http://www.w3.org/2000/svg" xmlns:xlink="http://www.w3.org/1999/xlink">
    <!-- Generator: Sketch 58 (84663) - https://sketch.com -->
    <title>envelope</title>
    <desc>Created with Sketch.</desc>
    <g id="Page-1" stroke="none" stroke-width="1" fill="none" fill-rule="evenodd">
        <g id="Informacje-boostera" transform="translate(-363.000000, -611.000000)" fill="#FFFFFF" fill-rule="nonzero">
            <g id="b1-copy-4" transform="translate(119.000000, 530.000000)">
                <g id="envelope" transform="translate(244.000000, 81.000000)">
                    <path d="M1.33753571,0.808107143 L7.42960714,5.63367857 C7.70585714,5.85225 8.08653571,5.94939286 8.45628571,5.93117857 C8.82542857,5.94939286 9.20610714,5.85285714 9.48235714,5.63367857 L15.5744286,0.808107143 C16.0625714,0.423785714 15.9520714,0.108678571 15.3327857,0.108678571 L8.45689286,0.108678571 L1.581,0.108678571 C0.961107143,0.108678571 0.850607143,0.423785714 1.33753571,0.808107143 Z" id="Path"></path>
                    <path d="M16.0146071,2.08128571 L9.35728571,7.13575 C9.10835714,7.32275 8.78232143,7.41382143 8.4575,7.40957143 C8.13207143,7.41382143 7.80603571,7.32214286 7.55710714,7.13575 L0.898571429,2.08128571 C0.404357143,1.70667857 0,1.90764286 0,2.52753571 L0,10.8205 C0,11.4403929 0.507571429,11.9479643 1.12746429,11.9479643 L8.45628571,11.9479643 L15.7857143,11.9479643 C16.4056071,11.9479643 16.9131786,11.4403929 16.9131786,10.8205 L16.9131786,2.52753571 C16.9131786,1.90764286 16.5088214,1.70667857 16.0146071,2.08128571 Z" id="Path"></path>
                </g>
            </g>
        </g>
    </g>
</svg>