<?xml version="1.0" encoding="UTF-8"?>
<svg width="20px" height="16px" viewBox="0 0 20 16" version="1.1" xmlns="http://www.w3.org/2000/svg" xmlns:xlink="http://www.w3.org/1999/xlink">
    <!-- Generator: Sketch 58 (84663) - https://sketch.com -->
    <title>eye</title>
    <desc>Created with Sketch.</desc>
    <g id="Page-1" stroke="none" stroke-width="1" fill="none" fill-rule="evenodd">
        <g id="Informacje-boostera" transform="translate(-356.000000, -856.000000)" fill="#FFFFFF" fill-rule="nonzero">
            <g id="b1-copy-2" transform="translate(119.000000, 835.000000)">
                <g id="eye" transform="translate(237.000000, 21.000000)">
                    <path d="M19.9142969,8.49972656 C19.3497656,7.57410156 18.1729297,6.16742188 16.8489844,5.06972656 L17.9815234,3.72003906 C18.1895312,3.47214844 18.1572266,3.10253906 17.9092969,2.89457031 C17.6613672,2.68652344 17.2917578,2.71882813 17.0838281,2.96679688 L15.9153516,4.35933594 C15.2737109,3.91363281 14.6119922,3.53792969 13.9294531,3.23765625 L14.5587109,1.50886719 C14.669375,1.20476563 14.5125781,0.868515625 14.2085156,0.7578125 C13.9042969,0.647109375 13.5681641,0.80390625 13.4574609,1.10800781 L12.8317969,2.82691406 C12.0923047,2.59703125 11.3417578,2.4575 10.5859375,2.41003906 L10.5859375,0.601679688 C10.5859375,0.278085938 10.3235937,0.0157421875 10,0.0157421875 C9.67640625,0.0157421875 9.4140625,0.278085938 9.4140625,0.601679688 L9.4140625,2.41003906 C8.65824219,2.45753906 7.90769531,2.59707031 7.16820312,2.82691406 L6.54253906,1.10800781 C6.43179687,0.803945313 6.09558594,0.647109375 5.79148437,0.7578125 C5.48738281,0.868515625 5.330625,1.20472656 5.44128906,1.50886719 L6.07054687,3.23765625 C5.38808594,3.53789063 4.72636719,3.91355469 4.08464844,4.35933594 L2.91617187,2.96679688 C2.70820312,2.71890625 2.33855469,2.68652344 2.09070312,2.89457031 C1.84277344,3.10253906 1.81046875,3.47214844 2.01847656,3.72003906 L3.15101562,5.06972656 C1.85449219,6.14476563 0.666367187,7.54761719 0.085703125,8.49972656 C-0.02859375,8.68707031 -0.02859375,8.92257813 0.085703125,9.10992188 C1.61203125,11.6125391 5.35738281,15.2186328 10,15.2186328 C14.4821484,15.2186328 18.2693359,11.8070703 19.9142969,9.10992188 C20.0285547,8.92257813 20.0285547,8.68707031 19.9142969,8.49972656 Z M10,12.9063672 C7.73839844,12.9063672 5.8984375,11.0664063 5.8984375,8.80480469 C5.8984375,6.54320313 7.73839844,4.70324219 10,4.70324219 C12.2616016,4.70324219 14.1015625,6.54320313 14.1015625,8.80480469 C14.1015625,11.0664063 12.2616016,12.9063672 10,12.9063672 L10,12.9063672 Z" id="Shape"></path>
                    <circle id="Oval" cx="10" cy="8.80480469" r="1"></circle>
                    <path d="M10,5.87511719 C8.38457031,5.87511719 7.0703125,7.189375 7.0703125,8.80480469 C7.0703125,10.4202344 8.38457031,11.7344922 10,11.7344922 C11.6154297,11.7344922 12.9296875,10.4202344 12.9296875,8.80480469 C12.9296875,7.189375 11.6154297,5.87511719 10,5.87511719 Z M10,10.5626172 C9.03074219,10.5626172 8.2421875,9.7740625 8.2421875,8.80480469 C8.2421875,7.83554688 9.03074219,7.04699219 10,7.04699219 C10.9692578,7.04699219 11.7578125,7.83554688 11.7578125,8.80480469 C11.7578125,9.7740625 10.9692578,10.5626172 10,10.5626172 Z" id="Shape"></path>
                </g>
            </g>
        </g>
    </g>
</svg>