<?xml version="1.0" encoding="utf-8"?>
<!-- Generator: Adobe Illustrator 25.0.0, SVG Export Plug-In . SVG Version: 6.00 Build 0)  -->
<svg version="1.1" id="Warstwa_1" xmlns="http://www.w3.org/2000/svg" xmlns:xlink="http://www.w3.org/1999/xlink" x="0px" y="0px"
	 viewBox="0 0 58.4 59.4" style="enable-background:new 0 0 58.4 59.4;" xml:space="preserve">
<g>
	<path style="fill:#61AE82;" d="M11,0l36.4,0c6.1,0,11,4.9,11,11v27.2c0,6.1-4.9,11-11,11h-5.2c-0.2,0-0.5,0.2-0.5,0.5v8.3
		c0,1.4-1.7,2.1-2.7,1.1l-12.4-9.7c-0.1-0.1-0.2-0.1-0.3-0.1H11c-6.1,0-11-4.9-11-11L0,11C0,4.9,4.9,0,11,0z"/>
	<path style="fill:#4F9069;" d="M37.1,45c0-0.3,0.2-0.5,0.4-0.5h5.1c5.9,0,10.6-5.2,10.6-11.6V4.6c0-1.1-0.1-2.1-0.4-3.1
		c3.3,1.9,5.5,5.5,5.5,9.5v27.2c0,6.1-4.9,11-11,11h-5.2c-0.2,0-0.5,0.2-0.5,0.5v8.3c0,1.4-1.7,2.1-2.7,1.1l-2-2.1L37.1,45L37.1,45z
		"/>
	<path style="fill:#FFFFFF;" d="M29.2,28.4L29.2,28.4c1.5,0,2.8-1.2,2.9-2.7l0.8-11.6c0.1-0.8-0.2-1.6-0.8-2.2
		C31.6,11.4,30.8,11,30,11h-1.7c-0.8,0-1.6,0.3-2.1,0.9c-0.5,0.6-0.8,1.4-0.8,2.2l0.8,11.6C26.4,27.2,27.7,28.4,29.2,28.4z"/>
	<path style="fill:#FFFFFF;" d="M29.2,37.2c1.9,0,3.4-1.5,3.4-3.4c0-1.9-1.5-3.4-3.4-3.4c-1.9,0-3.4,1.5-3.4,3.4
		C25.8,35.6,27.3,37.2,29.2,37.2z"/>
</g>
</svg>
