<svg xmlns="http://www.w3.org/2000/svg" width="136" height="73" viewBox="0 0 136 73">
  <metadata><?xpacket begin="﻿" id="W5M0MpCehiHzreSzNTczkc9d"?>
<x:xmpmeta xmlns:x="adobe:ns:meta/" x:xmptk="Adobe XMP Core 5.6-c138 79.159824, 2016/09/14-01:09:01        ">
   <rdf:RDF xmlns:rdf="http://www.w3.org/1999/02/22-rdf-syntax-ns#">
      <rdf:Description rdf:about=""/>
   </rdf:RDF>
</x:xmpmeta>
                                                                                                    
                                                                                                    
                                                                                                    
                                                                                                    
                                                                                                    
                                                                                                    
                                                                                                    
                                                                                                    
                                                                                                    
                                                                                                    
                                                                                                    
                                                                                                    
                                                                                                    
                                                                                                    
                                                                                                    
                                                                                                    
                                                                                                    
                                                                                                    
                                                                                                    
                                                                                                    
                           
<?xpacket end="w"?></metadata>
<defs>
    <style>
      .cls-1 {
        fill: #fff;
        fill-rule: evenodd;
      }
    </style>
  </defs>
  <path id="ico_logo" class="cls-1" d="M150.761,5928.31a1.356,1.356,0,0,1,.4,1.1v0.16h-0.632a1.356,1.356,0,0,0-.174-0.78,1.661,1.661,0,0,0-1.212-.24h-0.158a1.9,1.9,0,0,0-1.107.22,0.938,0.938,0,0,0-.188.73,0.92,0.92,0,0,0,.323.84,3.416,3.416,0,0,0,1.341.16,3.241,3.241,0,0,1,1.483.27,1.573,1.573,0,0,1,.445,1.27,1.652,1.652,0,0,1-.49,1.37,3.768,3.768,0,0,1-1.762.26H148.8a2.212,2.212,0,0,1-1.371-.32,1.4,1.4,0,0,1-.414-1.13,2.734,2.734,0,0,0,.015-0.34h0.648a0.455,0.455,0,0,1-.016.13,1.374,1.374,0,0,0,.234.93,0.845,0.845,0,0,0,.489.16c0.2,0.02.437,0.02,0.618,0.02,0.136,0,.279,0,0.429.01a1.823,1.823,0,0,0,.942-0.19,0.991,0.991,0,0,0,.263-0.86v-0.09a0.948,0.948,0,0,0-.2-0.7,1.7,1.7,0,0,0-.986-0.23,4.374,4.374,0,0,1-2.011-.33,1.325,1.325,0,0,1-.4-1.09,1.708,1.708,0,0,1,.414-1.31A4.43,4.43,0,0,1,150.761,5928.31Zm3.75-.27,2.123,5.58h-0.662l-0.46-1.17h-2.854l-0.436,1.17h-0.663l2.056-5.58h0.9Zm0.828,3.88-1.265-3.35-1.235,3.35h2.5Zm2.9-3.88,3.163,5.11h0.015v-5.11h0.647v5.58h-1.046l-3.178-5.05h-0.015v5.05h-0.648v-5.58h1.062Zm7.334,0,2.124,5.58h-0.663l-0.459-1.17H163.72l-0.437,1.17H162.62l2.056-5.58h0.9Zm0.828,3.88-1.265-3.35-1.235,3.35h2.5Zm2.734-3.32h-1.823v-0.56H171.6v0.56h-1.823v5.02h-0.647v-5.02Zm6.942-.08a2.2,2.2,0,0,1,.294,1.47v1.92a2.01,2.01,0,0,1-.294,1.22,1.874,1.874,0,0,1-1.619.54h-0.648a2.057,2.057,0,0,1-1.5-.44,1.973,1.973,0,0,1-.369-1.33v-1.98a2.4,2.4,0,0,1,.278-1.38,1.977,1.977,0,0,1,1.725-.54h0.2A2.415,2.415,0,0,1,176.076,5928.52Zm-2.176.03a1.234,1.234,0,0,0-1.175.38,2.3,2.3,0,0,0-.15.9v2.04a1.617,1.617,0,0,0,.188.91,1.184,1.184,0,0,0,1.031.34h0.369a1.736,1.736,0,0,0,1.356-.29,1.4,1.4,0,0,0,.218-0.92v-2.14a1.474,1.474,0,0,0-.248-0.95,0.829,0.829,0,0,0-.55-0.24c-0.248-.03-0.542-0.01-0.806-0.03H173.9Zm7.342-.1a2.554,2.554,0,0,1,.113,2.29,1.033,1.033,0,0,1-.761.38v0.02a0.969,0.969,0,0,1,.911.99v1.49h-0.647v-1.22a1.194,1.194,0,0,0-.211-0.77,1.006,1.006,0,0,0-.776-0.23h-2.033v2.22h-0.633v-5.58h2.711A1.85,1.85,0,0,1,181.242,5928.45Zm-3.389.15v2.23h2a1.1,1.1,0,0,0,.866-0.26,1.2,1.2,0,0,0,.211-0.8v-0.19a0.8,0.8,0,0,0-1-.98h-2.078Zm5.293-.56v5.58h-0.632v-5.58h0.632Zm3.494,5.09a1.914,1.914,0,0,0,1.19-.25,1.309,1.309,0,0,0,.234-0.98v-3.86h0.647v4a1.593,1.593,0,0,1-.459,1.28,3.37,3.37,0,0,1-1.905.35,3.171,3.171,0,0,1-1.537-.25,1.438,1.438,0,0,1-.572-1.31v-4.07h0.633v4.06a0.939,0.939,0,0,0,.263.82,2.56,2.56,0,0,0,1.183.21,0.871,0.871,0,0,1,.158-0.01A1,1,0,0,1,186.64,5933.13Zm3.11-5.09h1.122l1.995,4.79,2-4.79h1.106v5.58h-0.632v-5.1H195.33l-2.139,5.1h-0.632l-2.146-5.1H190.4v5.1H189.75v-5.58Zm11.731,5.09a1.914,1.914,0,0,0,1.19-.25,1.309,1.309,0,0,0,.234-0.98v-3.86h0.647v4a1.593,1.593,0,0,1-.459,1.28,3.37,3.37,0,0,1-1.905.35,3.171,3.171,0,0,1-1.537-.25,1.438,1.438,0,0,1-.572-1.31v-4.07h0.633v4.06a0.939,0.939,0,0,0,.263.82,2.558,2.558,0,0,0,1.182.21,0.887,0.887,0,0,1,.159-0.01A1,1,0,0,1,201.481,5933.13Zm7.131-5.09v0.59c-1.2,1.49-2.4,3-3.562,4.44h3.63v0.55h-4.413v-0.55l3.547-4.47h-3.441v-0.56h4.239Zm0.738,5.58v-5.58h2.764a1.706,1.706,0,0,1,1.656.82,2.894,2.894,0,0,1,.271,1.36v1.19a2.118,2.118,0,0,1-.858,2,1.745,1.745,0,0,1-.911.21H209.35Zm3.773-.94a2.563,2.563,0,0,0,.286-1.42v-1.24a1.224,1.224,0,0,0-1.183-1.42H209.99v4.47h2.063A1.206,1.206,0,0,0,213.123,5932.68Zm5.827-4.23a2.546,2.546,0,0,1,.113,2.29,1.029,1.029,0,0,1-.76.38v0.02a0.969,0.969,0,0,1,.911.99v1.49h-0.648v-1.22a1.188,1.188,0,0,0-.211-0.77,1,1,0,0,0-.775-0.23h-2.033v2.22h-0.633v-5.58h2.711A1.849,1.849,0,0,1,218.95,5928.45Zm-3.388.15v2.23h2a1.1,1.1,0,0,0,.866-0.26,1.209,1.209,0,0,0,.211-0.8v-0.19a1.181,1.181,0,0,0-.151-0.72,1.194,1.194,0,0,0-.851-0.26h-2.078Zm8.561-.08a2.2,2.2,0,0,1,.294,1.47v1.92a2,2,0,0,1-.294,1.22,1.872,1.872,0,0,1-1.618.54h-0.648a2.06,2.06,0,0,1-1.5-.44,1.979,1.979,0,0,1-.369-1.33v-1.98a2.389,2.389,0,0,1,.279-1.38,1.976,1.976,0,0,1,1.724-.54h0.2A2.414,2.414,0,0,1,224.123,5928.52Zm-2.176.03a1.234,1.234,0,0,0-1.175.38,2.321,2.321,0,0,0-.15.9v2.04a1.617,1.617,0,0,0,.188.91,1.187,1.187,0,0,0,1.032.34h0.369a1.735,1.735,0,0,0,1.355-.29,1.39,1.39,0,0,0,.218-0.92v-2.14a1.474,1.474,0,0,0-.248-0.95,0.827,0.827,0,0,0-.55-0.24c-0.248-.03-0.542-0.01-0.8-0.03h-0.234Zm2.809-.51H225.4l1.544,5.11h0.015l1.514-5.11h0.941l1.513,5.11h0.016l1.573-5.11h0.663l-1.777,5.58h-0.972l-1.468-5.01-0.015-.01-1.506,5.02h-0.957Zm9.615,0v5.58h-0.632v-5.58h0.632Zm4.533,0.27a1.356,1.356,0,0,1,.4,1.1v0.16h-0.633a1.364,1.364,0,0,0-.173-0.78,1.665,1.665,0,0,0-1.213-.24h-0.158a1.9,1.9,0,0,0-1.107.22,0.938,0.938,0,0,0-.188.73,0.918,0.918,0,0,0,.324.84,3.411,3.411,0,0,0,1.34.16,3.238,3.238,0,0,1,1.483.27,1.573,1.573,0,0,1,.445,1.27,1.652,1.652,0,0,1-.49,1.37,3.768,3.768,0,0,1-1.762.26h-0.233a2.209,2.209,0,0,1-1.37-.32,1.394,1.394,0,0,1-.415-1.13,2.734,2.734,0,0,0,.015-0.34h0.648a0.455,0.455,0,0,1-.016.13,1.374,1.374,0,0,0,.234.93,0.848,0.848,0,0,0,.49.16c0.2,0.02.436,0.02,0.617,0.02,0.136,0,.279,0,0.429.01a1.823,1.823,0,0,0,.942-0.19,0.991,0.991,0,0,0,.263-0.86v-0.09a0.948,0.948,0,0,0-.2-0.7,1.7,1.7,0,0,0-.986-0.23,4.374,4.374,0,0,1-2.011-.33,1.328,1.328,0,0,1-.4-1.09,1.708,1.708,0,0,1,.414-1.31A4.43,4.43,0,0,1,238.9,5928.31Zm1.928-.27v2.44h0.557l2.312-2.44h0.836l-2.583,2.7,2.892,2.88h-0.867l-2.59-2.59h-0.557v2.59H240.2v-5.58h0.633Zm8.373,0.48a2.2,2.2,0,0,1,.294,1.47v1.92a2.01,2.01,0,0,1-.294,1.22,1.874,1.874,0,0,1-1.619.54h-0.648a2.057,2.057,0,0,1-1.5-.44,1.973,1.973,0,0,1-.369-1.33v-1.98a2.4,2.4,0,0,1,.278-1.38,1.977,1.977,0,0,1,1.725-.54h0.2A2.415,2.415,0,0,1,249.205,5928.52Zm-2.176.03a1.234,1.234,0,0,0-1.175.38,2.281,2.281,0,0,0-.15.9v2.04a1.617,1.617,0,0,0,.188.91,1.185,1.185,0,0,0,1.032.34h0.368a1.736,1.736,0,0,0,1.356-.29,1.4,1.4,0,0,0,.218-0.92v-2.14a1.469,1.469,0,0,0-.249-0.95,0.825,0.825,0,0,0-.549-0.24c-0.249-.03-0.542-0.01-0.806-0.03h-0.233Zm2.808-.51h0.648l1.544,5.11h0.015l1.513-5.11H254.5l1.513,5.11h0.015l1.574-5.11h0.663l-1.777,5.58h-0.972l-1.469-5.01-0.014-.01-1.506,5.02h-0.957Zm8.75,0h3.63v0.56h-3v1.9h2.869v0.52H259.22v2.05h3v0.55h-3.63v-5.58Zm-97.8,11.33c0.164,1.44-.393,2.91-0.538,4.34,4.224,0.39,8.492,1.13,10.494,3.72a7.171,7.171,0,0,1,1.076,1.95,7.667,7.667,0,0,1-3.319,8.68c-0.742.43-1.686,0.56-2.421,0.98,3.173,1.54,5.887,3.98,5.292,8.77a8.771,8.771,0,0,1-5.2,6.82c-3.833,1.66-9.029.84-14.171,0.97,0.693-4.61,1.528-9.31,2.422-14.09s1.279-9.73,1.974-14.7c-4.126-.26-7.5,2.22-10.226,3.63-0.562-.33-0.7-1.55-0.717-2.12,0.633-1.05,1.988-1.48,3.138-2.04a30.194,30.194,0,0,1,7.983-2.39c0.463-1.11.191-2.94,0.718-3.99A12.647,12.647,0,0,1,160.785,5939.37Zm7.624,15.24a6.144,6.144,0,0,0,0-4.88c-1.06-2.24-5.344-3.82-8.61-3.36-1.32,8.68-2.805,17.66-3.5,26.66,5.3,0.28,10.411-.35,11.659-4.07,1.472-4.39-1.554-7.73-5.023-8.42-1.265-.25-2.605-0.11-3.677-0.62a4.391,4.391,0,0,1,.629-2.04C163.407,5957.97,167.229,5957.18,168.409,5954.61Zm34.263-12.14c-0.553,3.32-1.578,6.18-1.7,9.92,1.512-.37,1.9-1.84,3.408-2.21,0.022,1,.174,2.16-0.358,2.92-0.65.93-3.214,1.53-3.768,2.75-0.406.89-.4,3.41-0.538,4.51-0.636,5.14-1.32,10.29-1.973,15.24-1.049.05-2.59,0.38-3.5,0,0.734-5.48,2.109-11.08,2.6-17.1-1.339.54-1.976,1.77-3.319,2.31a6.4,6.4,0,0,1,.269-3.01c0.323-.6,1.34-0.87,1.974-1.33a14.191,14.191,0,0,0,1.793-1.51,112.248,112.248,0,0,0,1.077-11.69A10.709,10.709,0,0,1,202.672,5942.47Zm43.5-.09c-0.853,6.75-2.46,13.52-3.14,20.73a3.9,3.9,0,0,0,1.345-1.42,27.2,27.2,0,0,1,9.688-7.88,5.214,5.214,0,0,1,2.062-.8c0.977,0.12,1.6,1.46,2.063,2.31a24.994,24.994,0,0,0-12.467,8.14c0.148,0.72.825,0.94,1.255,1.42,1.92,2.13,3.239,5,4.755,7.53a24.523,24.523,0,0,0,5.56,6.65,15.533,15.533,0,0,0,5.921,1.86c3.24,0.24,6.439-.94,8.789-1.6a10.308,10.308,0,0,1-.538,2.66c-3.664,1.98-9.859,1.78-13.544.35-7.685-2.97-9.559-12.66-14.979-17.71-0.664,1.45-.663,3.44-0.9,5.4-0.222,1.87-.549,3.72-0.717,5.49a10.782,10.782,0,0,1-3.408.09c0.463-4.83,1.729-9.58,2.331-14.53,0.705-5.78,1.919-11.63,2.243-17.8A10.422,10.422,0,0,1,246.174,5942.38Zm-34.263,5.58c0.566,0.44.03,1.73-.18,2.66a6.414,6.414,0,0,0-.448,2.83c1.508,0.32,3.837-.18,5.2.27a5.468,5.468,0,0,1-1.257,2.13c-1.338.25-3.2-.27-4.484,0.17a45.259,45.259,0,0,0-1.345,7.18,36.7,36.7,0,0,0-.718,7.71c0.2,2.91,2.776,2.83,5.74,2.57a3.057,3.057,0,0,1-.537,2.21c-4.489,1.06-8.346.05-8.431-4.43a49.232,49.232,0,0,1,.986-7.62c0.419-2.72.78-5.34,1.076-7.44-0.988-.5-3.184.19-3.946-0.53,0.2-.92,1.23-1.14,1.884-1.42a15.462,15.462,0,0,0,2.421-.88c1.265-.9,1.048-3.78,2.153-4.88C210.61,5948.27,211.3,5948.16,211.911,5947.96Zm-21.258,26.31a2.069,2.069,0,0,1-.538,1.51c-2.364.67-4.428-.38-4.932-2.13-2.192,1.33-5.875,3.24-9.33,2.13a4.634,4.634,0,0,1-3.049-4.34c-0.3-7,7.016-9.21,13.723-9.57a5.769,5.769,0,0,0,.359-4.16c-0.826-2.19-4.326-2.47-7-1.77-0.892.23-1.558,0.9-2.422,0.88a8.067,8.067,0,0,1,.18-2.83c5.08-1.76,12.66-1.65,12.377,4.78-0.12,2.75-.886,5.21-1.256,7.97C188.331,5970.01,186.781,5974.21,190.653,5974.27Zm-14.709-5.05a4.92,4.92,0,0,0,.089,2.66c1.191,3.05,8.314,1.15,9.15-.8a18.623,18.623,0,0,0,.537-3.54,34.857,34.857,0,0,0,.628-3.46C182.012,5963.8,176.824,5965.6,175.944,5969.22Zm45.6,15.2c-0.465-.16-0.927-0.32-1.382-0.49,8.624-7.28,13.4-18.37,17.312-30.3a6.938,6.938,0,0,0-3.589.53,61.983,61.983,0,0,1-8.072,19.14c-2.058-5.97-2.917-13.13-4.126-19.93a12.374,12.374,0,0,0-3.946.79,47.809,47.809,0,0,0,1.435,5.5c1.335,4.61,2.291,9.38,3.408,14.35a11.992,11.992,0,0,1,.718,2.92,7.475,7.475,0,0,1-1.7,2.21,11.811,11.811,0,0,1-4.216,3.19,3.613,3.613,0,0,1-2.618-.17C215.853,5984.33,219.216,5984.99,221.544,5984.42Zm-84.947-2.43-0.591.03h0.054C136.141,5982.02,136.327,5982.01,136.6,5981.99Zm-0.591.03h0Zm96.918,11.87c-1.975,0-3.784-.07-5.531-0.22a62.551,62.551,0,0,1-9.931-1.74c-3.032-.76-6.228-1.72-10.365-3.11-0.56-.18-1.121-0.37-1.68-0.56-2.061-.71-4.141-1.49-6.154-2.25-2.634-.99-5.357-2.02-8.1-2.89-1.5-.48-2.882-0.88-4.223-1.21a54.917,54.917,0,0,0-9.348-1.44c-0.881-.07-1.774-0.11-2.733-0.15-2.316-.1-4.242-0.14-6.062-0.14h-0.541c-2.121.01-3.942,0.05-5.638,0.13a176.749,176.749,0,0,1,19.212-1.29c1.339,0,2.522.03,3.516,0.1h0.595c2.3,0,14.594.36,31.229,7.52,5.438,2.35,12.3,3.48,20.993,3.48,11.128,0,23.019-1.95,30.888-3.25,0.445-.07.879-0.14,1.3-0.22a83.745,83.745,0,0,1-23.116,6.42c-3.184.37-6.4,0.56-10.242,0.73C235.541,5993.86,234.21,5993.89,232.924,5993.89Zm3.027,7c-14.973.83-28.5-3.77-44.628-9.86-14.605-5.52-31.045-5.41-36.447-5.37h-1.222c-0.4-.01-1.258-0.03-2.424-0.04,1.431-.17,2.669-0.34,3.6-0.49l0.427-.07c1.54-.23,3.121-0.43,4.694-0.61,1.954-.22,4.045-0.39,6.577-0.54l0.529-.03c1.783-.1,3.678-0.16,5.963-0.19,0.933-.02,1.8-0.02,2.66,0a51.652,51.652,0,0,1,9,.88c1.306,0.25,2.658.56,4.131,0.94,2.729,0.71,5.477,1.57,8.134,2.41,2.069,0.65,4.208,1.32,6.341,1.92,0.545,0.16,1.091.31,1.637,0.46,6.324,2.8,15.861,6.25,25.536,6.95a111.51,111.51,0,0,0,13.838.01c6.035-.34,12.336-1.05,17.835-1.9a86.514,86.514,0,0,1-24.4,5.41C237.14,6000.82,236.546,6000.86,235.951,6000.89Z" transform="translate(-136 -5928)"/>
</svg>
