<?xml version="1.0" encoding="UTF-8"?>
<svg width="19px" height="19px" viewBox="0 0 19 19" version="1.1" xmlns="http://www.w3.org/2000/svg" xmlns:xlink="http://www.w3.org/1999/xlink">
    <!-- Generator: Sketch 58 (84663) - https://sketch.com -->
    <title>money</title>
    <desc>Created with Sketch.</desc>
    <g id="Page-1" stroke="none" stroke-width="1" fill="none" fill-rule="evenodd">
        <g id="Informacje-boostera" transform="translate(-386.000000, -791.000000)" fill="#FFFFFF" fill-rule="nonzero">
            <g id="b1-copy-5" transform="translate(119.000000, 772.000000)">
                <g id="money" transform="translate(267.000000, 19.000000)">
                    <path d="M9.5,0 C4.25366211,0 0,4.25366211 0,9.5 C0,14.7463379 4.25366211,19 9.5,19 C14.7474883,19 19,14.7463379 19,9.5 C19,4.25366211 14.7474883,0 9.5,0 Z M12.0906797,13.1680391 C11.6233242,13.692209 10.9484531,14.0006992 10.065918,14.0934727 L10.065918,15.4375 L8.94102148,15.4375 L8.94102148,14.1004121 C7.46941211,13.9496738 6.55904492,13.0938203 6.20769336,11.5352266 L7.94719531,11.0817871 C8.10839844,12.0616973 8.6418457,12.5510957 9.54753711,12.5510957 C9.97080664,12.5510957 10.2839355,12.4467441 10.4833984,12.2368164 C10.6828613,12.0268887 10.7825742,11.7740996 10.7825742,11.4772246 C10.7825742,11.1699219 10.6828242,10.9368008 10.4833984,10.7790859 C10.2839355,10.6202578 9.83977344,10.4195703 9.15209961,10.1760586 C8.53400586,9.96156641 8.05039648,9.75045117 7.70249609,9.53944727 C7.3545957,9.33070703 7.07163672,9.03732031 6.85476953,8.66040039 C6.63790234,8.28233008 6.52891211,7.84165625 6.52891211,7.34067969 C6.52891211,6.68313867 6.72373633,6.09053906 7.11108398,5.56406836 C7.49843164,5.03874805 8.10839844,4.71749219 8.94105859,4.600375 L8.94105859,3.5625 L10.0659551,3.5625 L10.0659551,4.60041211 C11.3230352,4.7511875 12.1371406,5.46205469 12.5070469,6.73420117 L10.9577305,7.36969922 C10.6550664,6.49762891 10.1888242,6.06159375 9.55570117,6.06159375 C9.23793359,6.06159375 8.98280664,6.15900586 8.7914707,6.35383008 C8.59894727,6.5486543 8.50272266,6.78522656 8.50272266,7.06239648 C8.50272266,7.34535547 8.59549609,7.56222266 8.78104297,7.71414844 C8.96543945,7.86492383 9.36321484,8.05162109 9.97088086,8.27542773 C10.6388496,8.51897656 11.1630195,8.74972266 11.5422402,8.96658984 C11.9226113,9.18345703 12.2252754,9.48382031 12.4525703,9.8653418 C12.6787148,10.2480508 12.7923066,10.6945508 12.7923066,11.2059551 C12.7923066,11.9909668 12.5580352,12.6450195 12.0906797,13.1680391 Z" id="Shape"></path>
                </g>
            </g>
        </g>
    </g>
</svg>