<?xml version="1.0" encoding="utf-8"?>
<!-- Generator: Adobe Illustrator 25.0.0, SVG Export Plug-In . SVG Version: 6.00 Build 0)  -->
<svg version="1.1" id="Warstwa_1" xmlns="http://www.w3.org/2000/svg" xmlns:xlink="http://www.w3.org/1999/xlink" x="0px" y="0px"
	 viewBox="0 0 59.3 110.3" style="enable-background:new 0 0 59.3 110.3;" xml:space="preserve">
<g>
	<g>
		<g style="opacity:0.2;">
			<polygon style="fill:#020203;" points="27,41.4 24.3,110.3 37.3,110.3 34.7,41.4 			"/>
		</g>
		<g>
			<polygon style="fill:#B31816;" points="26,40.4 23.3,109.3 36.3,109.3 33.7,40.4 			"/>
		</g>
	</g>
	<g>
		<g style="opacity:0.2;">
			<polygon style="fill:#020203;" points="24.3,1 26.9,43.7 35.3,43.8 37.3,1 			"/>
		</g>
		<g>
			<polygon style="fill:#D21216;" points="23.3,0 25.9,42.7 34.3,42.8 36.3,0 			"/>
		</g>
	</g>
	<g>
		
			<image style="overflow:visible;opacity:0.28;" width="273" height="221" xlink:href="10D929B1.png"  transform="matrix(0.24 0 0 0.24 -2.0497 23.326)">
		</image>
		<g>
			<g>
				<path style="fill-rule:evenodd;clip-rule:evenodd;fill:#C71517;" d="M34.2,36.5c-8.5,0.8,4.1,26.7,3.9,35.8
					c4.8-1.7,8.2-4.2,11.2-7.9C50.3,63.2,37.6,36.2,34.2,36.5z"/>
				<path style="fill-rule:evenodd;clip-rule:evenodd;fill:#C71517;" d="M25.1,37.2c6.4,0.3-3.3,24.9-2.5,33.9
					c-4.9-1.5-8.5-3-11.7-6.5C9.8,63.4,21.7,37.1,25.1,37.2z"/>
				<g>
					<g>
						<path style="fill-rule:evenodd;clip-rule:evenodd;fill:#A91815;" d="M8.4,25.4c-6.4-1.4-6.4,29,0,27.6
							c6.3-1.4,21.3-9.3,21.3-12.6V38C29.7,34.7,14.6,26.8,8.4,25.4z"/>
						<path style="fill-rule:evenodd;clip-rule:evenodd;fill:#DF0914;" d="M5,27.6C-1.7,26.4-1.7,52,5,50.8
							c6.6-1.2,22.4-7.8,22.4-10.6v-2C27.5,35.5,11.6,28.8,5,27.6z"/>
					</g>
					<g>
						<path style="fill-rule:evenodd;clip-rule:evenodd;fill:#A91815;" d="M8.3,39.2c6.5-0.4,12.6-0.6,21.4-0.6v1.2
							C20.9,39.8,14.8,39.6,8.3,39.2z"/>
						<g>
							<path style="fill-rule:evenodd;clip-rule:evenodd;fill:#A91815;" d="M13.6,34.9c4.5,0.9,10.1,2.3,16.1,3.9v0.9l-0.1,0
								C23.5,38,18,36.4,13.6,34.9z"/>
							<path style="fill-rule:evenodd;clip-rule:evenodd;fill:#A91815;" d="M13.6,43.5c4.4-1.5,10-3.1,16-4.7l0.1,0v0.9
								C23.7,41.3,18.1,42.6,13.6,43.5z"/>
						</g>
					</g>
				</g>
				<g>
					<g>
						<path style="fill-rule:evenodd;clip-rule:evenodd;fill:#A91815;" d="M51,25.4c6.4-1.4,6.4,29,0,27.6
							c-6.3-1.4-21.3-9.3-21.3-12.6V38C29.7,34.7,44.7,26.8,51,25.4z"/>
						<path style="fill-rule:evenodd;clip-rule:evenodd;fill:#DF0914;" d="M54.3,27.6c6.7-1.2,6.7,24.4,0,23.2
							c-6.6-1.2-22.4-7.8-22.4-10.6v-2C31.9,35.5,47.7,28.8,54.3,27.6z"/>
					</g>
					<g>
						<path style="fill-rule:evenodd;clip-rule:evenodd;fill:#A91815;" d="M51,39.2c-6.5-0.4-12.6-0.6-21.4-0.6v1.2
							C38.4,39.8,44.5,39.6,51,39.2z"/>
						<g>
							<path style="fill-rule:evenodd;clip-rule:evenodd;fill:#A91815;" d="M45.8,34.9c-4.5,0.9-10.1,2.3-16.1,3.9v0.9l0.1,0
								C35.8,38,41.4,36.4,45.8,34.9z"/>
							<path style="fill-rule:evenodd;clip-rule:evenodd;fill:#A91815;" d="M45.8,43.5c-4.4-1.5-10-3.1-16-4.7l-0.1,0v0.9
								C35.7,41.3,41.3,42.6,45.8,43.5z"/>
						</g>
					</g>
				</g>
				<path style="fill-rule:evenodd;clip-rule:evenodd;fill:#A91815;" d="M28.5,33.9h2.3c2.1,0,3.8,1.7,3.8,3.8v3
					c0,2.1-1.7,3.8-3.8,3.8h-2.3c-2.1,0-3.8-1.7-3.8-3.8v-3C24.7,35.6,26.4,33.9,28.5,33.9z"/>
				<path style="fill-rule:evenodd;clip-rule:evenodd;fill:#E30613;" d="M28.7,33.9h1.9c1.7,0,3.1,1.4,3.1,3.1v4.3
					c0,1.7-1.4,3.1-3.1,3.1h-1.9c-1.7,0-3.1-1.4-3.1-3.1V37C25.6,35.3,27,33.9,28.7,33.9z"/>
			</g>
		</g>
	</g>
	<polygon style="fill:#75160E;" points="22.5,1.2 23.3,0 23.4,1.2 	"/>
	<polyline style="fill:#75160E;" points="22.5,108.1 23.4,109.3 23.4,108.1 	"/>
</g>
</svg>
