<?xml version="1.0" encoding="UTF-8"?>
<svg width="15px" height="10px" viewBox="0 0 15 10" version="1.1" xmlns="http://www.w3.org/2000/svg" xmlns:xlink="http://www.w3.org/1999/xlink">
    <!-- Generator: Sketch 58 (84663) - https://sketch.com -->
    <title>Shape</title>
    <desc>Created with Sketch.</desc>
    <g id="Page-1" stroke="none" stroke-width="1" fill="none" fill-rule="evenodd">
        <g id="Informacje-boostera" transform="translate(-138.000000, -406.000000)" fill="#FFFFFF" fill-rule="nonzero">
            <g id="b1-copy-3" transform="translate(119.000000, 334.000000)">
                <g id="Group-8" transform="translate(19.000000, 46.000000)">
                    <path d="M9.83766214,29.9350649 C10.9263634,29.9350649 11.7986361,29.0562337 11.7986361,27.9675324 C11.7986361,26.8788312 10.9263634,26 9.83766214,26 C8.74896087,26 7.87012971,26.8788312 7.87012971,27.9675324 C7.87012971,29.0562337 8.74896087,29.9350649 9.83766214,29.9350649 Z M4.590909,29.9350649 C5.67961028,29.9350649 6.55188299,29.0562337 6.55188299,27.9675324 C6.55188299,26.8788312 5.67961028,26 4.590909,26 C3.50220772,26 2.62337657,26.8788312 2.62337657,27.9675324 C2.62337657,29.0562337 3.50220772,29.9350649 4.590909,29.9350649 Z M4.590909,31.2467531 C3.06279215,31.2467531 3.46389584e-14,32.0140908 3.46389584e-14,33.5422076 L3.46389584e-14,35.181818 L9.181818,35.181818 L9.181818,33.5422076 C9.181818,32.0140908 6.11902585,31.2467531 4.590909,31.2467531 Z M9.83766214,31.2467531 C9.64746734,31.2467531 9.43103877,31.25987 9.20149332,31.2795454 C9.96227253,31.8304544 10.4935063,32.5715583 10.4935063,33.5422076 L10.4935063,35.181818 L14.4285711,35.181818 L14.4285711,33.5422076 C14.4285711,32.0140908 11.365779,31.2467531 9.83766214,31.2467531 Z" id="Shape"></path>
                </g>
            </g>
        </g>
    </g>
</svg>